<?xml version="1.0" encoding="iso-8859-1"?>
<!-- Uploaded to: SVG Repo, www.svgrepo.com, Generator: SVG Repo Mixer Tools -->
<svg fill="#000000" height="800px" width="800px" version="1.1" id="Layer_1" xmlns="http://www.w3.org/2000/svg" xmlns:xlink="http://www.w3.org/1999/xlink" 
	 viewBox="0 0 512 512" xml:space="preserve">
<g>
	<g>
		<path d="M489.593,310.096h-8.963v-20.166c0-33.412-27.087-60.499-60.499-60.499h-28.317l-29.075-60.676
			c-6.448-13.454-21.724-22.149-38.919-22.149h-7.064v-41.409c0-6.188-5.016-11.203-11.203-11.203
			c-29.793,0-54.144,23.263-55.905,52.614h-27.885c-36.41,0-70.793,11.065-96.813,31.155
			c-22.615,17.462-36.759,39.962-40.856,64.491c-25.166,14.106-43.667,38.688-49.584,67.844H22.407
			C10.032,310.096,0,320.127,0,332.503s10.032,22.407,22.407,22.407H32.49v4.843c0,4.75,3.851,8.601,8.601,8.601h17.26
			c0-4.584,0.412-9.07,1.161-13.444c2.898-16.93,11.161-32.042,22.981-43.527c14.321-13.915,33.84-22.508,55.337-22.508
			c43.825,0,79.479,35.654,79.479,79.479h78.557c0-43.825,35.654-79.479,79.479-79.479c21.34,0,40.727,8.47,55.019,22.204
			c11.989,11.522,20.376,26.75,23.299,43.83c0.748,4.374,1.161,8.861,1.161,13.444h17.205c4.75,0,8.601-3.851,8.601-8.601v-4.843
			h8.963c12.376,0,22.408-10.032,22.408-22.407S501.968,310.096,489.593,310.096z M152.411,229.431h-19.09
			c-5.035,0-9.981,0.374-14.818,1.087c6.694-14.183,18.552-26.575,33.907-35.934V229.431z M240.724,229.43h-58.88v-47.681
			c12.375-3.61,25.835-5.61,39.919-5.61h18.961V229.43z M270.156,229.43V176.14h53.665c6.077,0,11.019,2.734,12.285,5.378
			l22.959,47.913H270.156z"/>
	</g>
</g>
<g>
	<g>
		<path d="M137.831,318.702c-27.423,0-49.653,22.23-49.653,49.653s22.23,49.653,49.653,49.653c27.423,0,49.653-22.23,49.653-49.653
			S165.253,318.702,137.831,318.702z M137.831,385.907c-9.694,0-17.554-7.859-17.554-17.554c0-9.694,7.859-17.554,17.554-17.554
			s17.554,7.859,17.554,17.554C155.385,378.048,147.525,385.907,137.831,385.907z"/>
	</g>
</g>
<g>
	<g>
		<path d="M375.345,318.702c-27.423,0-49.653,22.23-49.653,49.653s22.23,49.653,49.653,49.653s49.653-22.23,49.653-49.653
			S402.767,318.702,375.345,318.702z M375.345,385.907c-9.694,0-17.554-7.859-17.554-17.554c0-9.694,7.859-17.554,17.554-17.554
			c9.694,0,17.554,7.859,17.554,17.554C392.899,378.048,385.04,385.907,375.345,385.907z"/>
	</g>
</g>
</svg>